<?xml version="1.0" standalone="no"?>
<!DOCTYPE svg PUBLIC "-//W3C//DTD SVG 20010904//EN"
 "http://www.w3.org/TR/2001/REC-SVG-20010904/DTD/svg10.dtd">
<svg version="1.0" xmlns="http://www.w3.org/2000/svg"
 width="1024.000000pt" height="1024.000000pt" viewBox="0 0 1024.000000 1024.000000"
 preserveAspectRatio="xMidYMid meet">
<metadata>
Created by potrace 1.16, written by Peter Selinger 2001-2019
</metadata>
<g transform="translate(0.000000,1024.000000) scale(0.100000,-0.100000)"
fill="#000000" stroke="none">
<path d="M0 5120 l0 -5120 5120 0 5120 0 0 5120 0 5120 -5120 0 -5120 0 0
-5120z m5282 3889 l57 -59 1 -362 c1 -200 1 -381 0 -403 0 -37 -4 -42 -42 -60
-23 -11 -49 -27 -57 -36 -9 -9 -38 -19 -65 -22 -27 -2 -51 -9 -55 -15 -3 -6
-19 -14 -34 -17 -15 -4 -32 -16 -38 -26 -14 -28 -111 -27 -139 1 -11 11 -25
20 -30 20 -6 0 -13 7 -16 15 -3 8 -20 17 -37 20 -25 5 -36 16 -52 47 -18 38
-19 63 -20 441 0 312 3 401 13 404 6 3 12 9 12 15 0 12 55 68 68 68 5 0 12 7
15 15 7 17 99 23 257 16 l105 -4 57 -58z m-1077 -79 c15 -6 35 -20 46 -33 17
-20 18 -43 17 -332 0 -170 -3 -323 -7 -340 -6 -29 -12 -33 -96 -70 -22 -9 -47
-21 -55 -26 -8 -5 -25 -13 -36 -18 -12 -5 -24 -16 -27 -24 -3 -8 -19 -18 -35
-22 -17 -3 -33 -13 -36 -21 -3 -8 -12 -14 -21 -14 -8 0 -15 -4 -15 -10 0 -5
-14 -17 -32 -26 -18 -9 -38 -22 -45 -29 -7 -7 -16 -15 -20 -17 -5 -1 -18 -23
-30 -48 -19 -38 -23 -69 -29 -197 -5 -119 -10 -153 -20 -153 -8 0 -14 -6 -14
-14 0 -12 -41 -15 -252 -18 l-253 -3 -69 -38 c-78 -42 -110 -46 -126 -17 -6
11 -17 20 -25 20 -8 0 -15 5 -15 11 0 10 -41 54 -235 253 -109 111 -175 186
-175 198 0 4 -6 8 -13 8 -8 0 -24 11 -37 25 -17 19 -23 36 -23 70 0 40 5 50
36 80 21 19 37 39 37 45 0 5 5 10 11 10 6 0 35 25 65 55 30 30 59 55 64 55 6
0 10 4 10 8 0 5 24 24 53 42 28 19 56 40 60 47 4 7 14 13 21 13 7 0 21 9 31
20 10 11 26 20 35 20 10 0 20 7 24 15 3 8 11 15 19 15 7 0 22 8 33 18 37 33
83 62 97 62 8 0 20 6 26 14 7 8 26 18 43 21 16 4 39 16 49 26 10 10 28 19 39
19 11 0 20 4 20 9 0 5 24 21 53 34 114 54 145 67 156 67 7 0 19 7 27 15 9 8
25 15 37 15 12 0 36 7 52 16 17 9 50 21 74 25 25 5 48 13 51 19 3 5 30 13 60
19 30 5 89 21 130 36 60 22 135 39 232 54 4 1 19 -4 33 -9z m1891 -24 c16 -9
52 -20 81 -26 29 -6 55 -16 58 -21 4 -5 19 -9 36 -9 16 0 46 -9 66 -20 21 -11
49 -20 63 -20 14 0 39 -9 55 -20 17 -11 40 -20 51 -20 12 0 24 -7 28 -15 3 -8
13 -15 22 -15 21 0 124 -51 124 -62 0 -4 16 -10 35 -14 19 -3 39 -12 45 -19 6
-8 25 -17 41 -20 16 -4 29 -11 29 -16 0 -5 20 -14 45 -20 24 -6 50 -17 56 -25
6 -8 20 -14 30 -14 10 0 21 -5 25 -11 3 -6 21 -18 38 -26 42 -20 82 -43 136
-78 61 -40 81 -52 110 -67 14 -7 29 -18 33 -25 4 -7 13 -13 20 -13 7 0 28 -16
46 -35 19 -19 44 -38 55 -41 11 -4 34 -22 52 -40 17 -19 34 -34 38 -34 4 0 21
-16 39 -35 17 -19 37 -35 44 -35 6 0 15 -9 18 -20 3 -11 11 -20 16 -20 14 0
11 -28 -4 -37 -8 -4 -16 -16 -20 -25 -3 -10 -13 -18 -22 -18 -8 0 -15 -6 -15
-14 0 -7 -9 -16 -20 -19 -11 -3 -20 -12 -20 -20 0 -8 -9 -17 -20 -20 -11 -3
-20 -12 -20 -21 0 -9 -7 -16 -15 -16 -8 0 -15 -6 -15 -14 0 -7 -9 -16 -20 -19
-11 -3 -20 -12 -20 -20 0 -9 -9 -19 -20 -22 -11 -3 -20 -13 -20 -21 0 -8 -7
-14 -15 -14 -8 0 -15 -6 -15 -14 0 -8 -9 -18 -20 -21 -11 -3 -20 -11 -20 -17
0 -13 -47 -58 -61 -58 -5 0 -9 -7 -9 -16 0 -9 -9 -18 -20 -21 -11 -3 -20 -11
-20 -18 0 -8 -9 -17 -20 -20 -11 -3 -20 -13 -20 -21 0 -8 -7 -14 -15 -14 -8 0
-15 -5 -15 -11 0 -6 -17 -27 -37 -48 -21 -21 -56 -60 -78 -87 -85 -104 -111
-115 -160 -64 -16 17 -34 30 -39 30 -6 0 -17 9 -24 20 -7 11 -19 20 -27 20 -8
0 -15 7 -15 15 0 8 -8 15 -18 15 -10 0 -26 6 -37 14 -11 7 -38 16 -60 20 -22
4 -47 14 -55 21 -8 7 -53 18 -100 24 -157 20 -199 27 -203 31 -11 13 -30 105
-38 185 -5 50 -13 101 -18 115 -6 14 -13 40 -16 58 -6 29 -81 122 -99 122 -4
0 -24 16 -44 36 -20 20 -46 40 -57 45 -27 12 -55 31 -77 52 -10 9 -28 17 -41
17 -13 0 -32 6 -42 14 -17 12 -19 37 -26 307 -4 162 -11 304 -14 316 -7 21 19
90 39 106 18 14 219 -1 252 -17z m-1534 -1150 c8 -7 33 -17 57 -21 48 -8 94
-46 108 -90 5 -17 6 -68 2 -120 -4 -49 -8 -161 -8 -247 -1 -146 0 -158 18
-168 27 -14 516 -14 542 0 19 10 19 23 19 278 -1 147 2 276 6 287 9 27 45 65
60 65 6 0 14 7 18 15 4 12 30 15 146 15 116 0 142 -3 146 -15 4 -8 12 -15 18
-15 7 0 23 -12 37 -26 l24 -26 3 -286 c3 -206 7 -289 15 -294 7 -4 44 -8 82
-8 39 -1 93 -5 120 -10 28 -5 84 -14 125 -21 41 -6 80 -15 85 -19 6 -4 26 -11
45 -15 19 -4 50 -16 68 -26 18 -10 42 -19 53 -19 11 0 22 -7 25 -15 4 -8 14
-15 24 -15 9 0 25 -9 35 -20 10 -11 23 -20 29 -20 6 0 28 -15 48 -34 21 -19
45 -37 55 -40 10 -3 40 -34 68 -67 27 -34 56 -69 64 -77 18 -17 35 -45 51 -82
6 -13 15 -27 19 -30 14 -9 61 -119 61 -142 0 -13 7 -33 15 -46 14 -18 16 -60
13 -282 -2 -177 -7 -263 -14 -268 -6 -4 -14 -24 -18 -45 -4 -22 -20 -62 -37
-90 -16 -29 -32 -58 -36 -66 -3 -8 -13 -22 -20 -30 -40 -45 -63 -77 -63 -88 0
-7 -6 -13 -12 -13 -7 0 -24 -12 -37 -25 -13 -14 -30 -25 -38 -25 -8 0 -21 -7
-29 -15 -9 -8 -33 -15 -55 -15 -25 0 -42 -5 -45 -14 -3 -8 -20 -18 -37 -21
-18 -4 -42 -13 -54 -21 -13 -8 -44 -17 -69 -21 -54 -7 -94 -39 -94 -76 0 -34
49 -64 120 -72 30 -4 64 -13 75 -20 11 -7 36 -16 55 -20 19 -4 46 -16 59 -26
13 -11 30 -19 38 -19 7 0 16 -7 19 -15 4 -8 11 -15 16 -15 14 0 168 -152 168
-166 0 -7 6 -14 14 -17 8 -3 17 -20 21 -37 4 -17 13 -34 20 -37 8 -2 17 -19
21 -36 3 -18 10 -37 16 -43 5 -7 13 -38 18 -69 5 -32 16 -65 24 -74 11 -12 14
-50 15 -156 0 -77 -3 -146 -8 -153 -7 -11 -15 -11 -46 2 -67 28 -256 19 -285
-14 -3 -4 -50 -11 -105 -17 -56 -6 -101 -15 -103 -22 -2 -6 -10 -11 -18 -11
-7 0 -28 -9 -46 -19 -17 -11 -35 -18 -40 -15 -13 8 -9 64 8 99 12 27 15 61 12
165 -2 82 -7 133 -14 138 -6 4 -15 22 -19 40 -7 35 -53 112 -67 112 -4 0 -8 7
-8 15 0 9 -6 18 -14 21 -8 3 -18 19 -21 35 -4 16 -10 29 -15 29 -5 0 -21 12
-37 28 -41 40 -109 92 -121 92 -5 0 -12 6 -15 14 -3 7 -18 17 -34 20 -15 4
-35 13 -43 21 -8 7 -26 16 -40 20 -13 4 -30 13 -36 20 -7 7 -32 15 -55 19 -24
4 -48 11 -55 17 -13 11 -528 28 -841 29 -158 0 -185 2 -203 17 -11 10 -20 23
-20 30 0 27 -39 53 -80 53 -35 0 -40 -3 -41 -22 -4 -92 0 -1261 5 -1265 9 -9
1058 -3 1075 7 9 4 36 11 61 15 25 4 55 13 67 21 12 8 27 14 34 14 6 0 24 11
41 25 16 14 36 25 44 25 8 0 14 7 14 15 0 8 6 15 14 15 8 0 18 9 21 20 3 11
12 20 20 20 8 0 17 9 20 20 3 11 13 20 21 20 8 0 14 7 14 15 0 8 6 15 14 15 8
0 18 9 21 20 3 11 10 20 15 20 12 0 30 57 30 95 0 18 7 38 15 45 21 17 22 182
1 199 -8 6 -17 31 -20 55 -4 24 -15 59 -24 77 -20 39 -105 129 -121 129 -6 0
-11 6 -11 14 0 8 -13 17 -29 21 -16 3 -32 12 -34 20 -3 7 -19 16 -36 20 -17 4
-31 11 -31 16 0 14 76 11 88 -4 6 -7 27 -19 47 -27 19 -7 35 -17 35 -22 0 -4
5 -8 12 -8 12 0 68 -59 68 -72 0 -4 6 -8 13 -8 7 0 18 -12 24 -27 7 -16 16
-35 21 -43 25 -42 41 -80 52 -127 6 -29 16 -53 21 -53 12 0 12 -216 -1 -238
-5 -9 -14 -42 -20 -74 -6 -31 -17 -59 -24 -61 -7 -3 -16 -18 -19 -34 -3 -16
-22 -47 -41 -68 -20 -21 -36 -43 -36 -47 0 -4 -7 -8 -15 -8 -8 0 -15 -7 -15
-15 0 -8 -6 -15 -14 -15 -8 0 -16 -7 -20 -15 -4 -10 1 -15 14 -15 11 0 20 7
20 15 0 10 11 15 35 15 21 0 35 -5 35 -12 0 -17 -72 -98 -87 -98 -7 0 -16 -7
-20 -15 -14 -23 -102 -65 -139 -65 -22 0 -37 -6 -40 -15 -4 -8 -16 -15 -28
-15 -11 0 -50 -8 -86 -16 -55 -14 -200 -17 -960 -25 -1107 -11 -1258 -14
-1294 -29 -42 -16 -51 -1 -50 79 0 82 22 115 99 152 47 22 64 24 252 27 l202
3 6 32 c3 18 4 582 3 1255 -3 1160 -4 1224 -21 1237 -16 11 -16 13 -2 19 13 5
15 19 13 73 l-3 68 -40 -3 c-22 -1 -71 -10 -110 -19 l-70 -16 30 -13 c17 -7
58 -13 92 -14 60 0 62 0 68 -31 4 -17 3 -34 -1 -38 -5 -3 -85 -4 -177 -1 -145
4 -170 7 -181 23 -7 9 -19 17 -26 17 -12 0 -35 19 -95 78 -39 38 -55 97 -55
205 0 101 15 145 64 192 l41 40 407 3 c405 3 408 3 419 24 8 14 13 118 17 292
2 149 8 273 11 276 4 3 12 17 19 33 6 15 24 33 39 39 16 7 32 18 36 25 12 19
201 18 219 -1z m-2327 -80 c7 -9 17 -16 24 -16 6 0 11 -7 11 -15 0 -9 7 -18
15 -21 8 -4 15 -12 15 -19 0 -18 88 -112 139 -150 22 -16 45 -42 52 -57 6 -15
17 -29 25 -32 8 -3 14 -12 14 -21 0 -8 5 -15 10 -15 13 0 100 -86 100 -99 0
-5 9 -13 20 -16 11 -3 20 -13 20 -21 0 -8 6 -14 13 -14 7 0 20 -8 28 -17 25
-28 68 -63 78 -63 5 0 14 -13 21 -29 9 -22 10 -94 5 -283 -6 -231 -8 -257 -28
-300 -12 -26 -28 -47 -34 -48 -7 0 -13 -4 -13 -10 0 -5 -13 -16 -30 -25 -37
-19 -273 -22 -475 -5 -77 6 -161 11 -187 10 -26 0 -60 6 -75 13 -33 18 -304
26 -424 13 -42 -5 -91 -5 -108 -1 -28 6 -31 10 -31 44 0 20 7 46 15 57 8 10
15 29 15 42 0 12 9 40 20 62 11 22 20 50 20 63 0 14 7 30 15 37 8 7 17 27 21
46 3 19 10 37 15 40 5 2 13 23 20 46 6 23 17 47 25 55 8 8 14 21 14 30 0 8 9
26 20 40 11 14 20 34 20 45 0 10 6 21 14 24 8 3 18 18 21 34 3 16 13 34 21 41
8 6 14 17 14 24 0 6 9 20 20 30 11 10 20 26 20 37 0 10 4 18 9 18 5 0 16 12
23 28 28 54 43 77 61 90 9 7 17 20 17 28 0 8 9 22 20 31 11 10 20 21 20 25 0
4 16 23 35 42 19 20 35 40 35 45 0 6 6 14 13 18 7 4 20 19 29 33 23 36 81 97
98 104 28 11 113 -1 125 -18z m5778 -3 c4 -7 13 -13 20 -13 7 0 23 -17 37 -37
30 -45 57 -73 70 -73 5 0 17 -16 26 -35 9 -19 20 -35 25 -35 5 0 9 -6 9 -13 0
-7 8 -20 18 -29 22 -22 45 -48 57 -69 24 -40 51 -75 62 -82 7 -4 13 -15 13
-22 0 -8 6 -15 14 -15 8 0 17 -13 21 -30 4 -16 12 -33 18 -37 14 -9 31 -36 51
-79 8 -17 19 -35 26 -39 6 -4 15 -17 21 -28 5 -12 13 -29 18 -37 6 -8 21 -40
34 -70 14 -30 32 -71 41 -92 9 -20 16 -42 16 -50 0 -7 6 -22 14 -33 7 -11 16
-37 20 -57 4 -21 11 -38 16 -38 5 0 14 -26 20 -57 7 -32 19 -70 28 -85 12 -21
13 -32 5 -51 -11 -24 -14 -25 -160 -29 -94 -3 -157 -9 -172 -17 -41 -22 -503
-55 -781 -56 l-125 0 -42 40 c-23 22 -45 53 -48 67 -4 15 -13 32 -21 39 -8 6
-14 23 -14 37 0 14 -7 33 -15 42 -8 9 -20 42 -25 73 -6 31 -17 69 -25 84 -8
16 -15 35 -15 43 0 9 -7 26 -16 39 -23 33 -24 124 -1 149 9 10 17 22 17 26 0
5 18 30 40 56 22 26 40 53 40 59 0 6 7 14 15 17 8 3 17 14 20 25 4 10 13 19
21 19 8 0 14 5 14 12 0 6 7 18 15 27 8 9 36 37 61 64 25 26 49 47 54 47 6 0
10 4 10 9 0 12 58 71 70 71 6 0 10 7 10 15 0 8 7 15 15 15 9 0 18 7 21 15 3 8
14 17 25 20 10 4 19 10 19 15 0 14 46 60 59 60 6 0 14 7 17 15 4 8 12 15 20
15 8 0 14 4 14 9 0 13 56 71 69 71 6 0 11 4 11 8 0 29 86 34 103 5z m-6591
-1754 c36 -5 79 -15 95 -23 15 -8 55 -27 88 -42 33 -16 66 -34 73 -41 7 -7 20
-13 27 -13 16 0 155 -132 155 -147 0 -5 13 -24 29 -42 28 -32 31 -32 53 -17
30 21 255 22 394 1 54 -8 118 -15 141 -15 23 0 54 -6 70 -14 15 -8 39 -19 53
-26 65 -29 150 -96 150 -117 0 -5 8 -16 18 -25 34 -33 45 -50 54 -90 15 -71
12 -72 -217 -64 -110 3 -288 7 -395 7 l-195 2 -6 -86 c-4 -60 -11 -90 -22
-102 -10 -9 -17 -27 -17 -41 0 -25 -46 -104 -61 -104 -5 0 -9 -6 -9 -13 0 -8
-9 -24 -20 -37 -11 -13 -20 -26 -20 -30 0 -15 -134 -141 -156 -146 -12 -3 -25
-12 -28 -20 -3 -8 -14 -14 -25 -14 -11 0 -23 -5 -26 -11 -15 -23 -121 -59
-208 -70 -190 -24 -364 -9 -442 40 -28 17 -62 36 -77 42 -14 6 -29 17 -32 25
-3 8 -12 14 -20 14 -7 0 -16 7 -20 15 -3 8 -12 15 -20 15 -8 0 -18 9 -21 20
-3 11 -13 20 -21 20 -8 0 -14 7 -14 15 0 8 -7 15 -15 15 -9 0 -20 11 -25 24
-5 13 -12 25 -17 27 -7 4 -39 65 -77 151 -9 20 -16 49 -16 65 0 15 -7 37 -15
47 -21 28 -21 263 0 290 8 11 15 36 15 57 0 20 6 42 14 48 8 7 18 26 21 42 4
16 12 32 18 36 7 5 19 21 27 37 30 59 35 66 52 72 10 3 18 12 18 20 0 8 7 17
15 20 8 4 15 12 15 20 0 8 6 14 13 14 7 0 20 8 29 18 37 37 54 51 78 61 14 6
32 15 40 19 116 65 269 81 482 51z m7739 -13 c36 -14 75 -26 86 -26 12 0 23
-6 26 -14 3 -7 18 -17 34 -21 26 -6 42 -17 81 -57 9 -10 21 -18 27 -18 6 0 34
-26 62 -58 75 -84 91 -106 98 -135 4 -14 13 -28 21 -31 8 -3 14 -16 14 -30 0
-14 8 -32 18 -42 15 -16 17 -41 16 -247 -1 -203 -3 -231 -17 -239 -10 -5 -17
-19 -17 -31 0 -24 -44 -96 -67 -110 -7 -4 -13 -15 -13 -23 0 -8 -7 -17 -15
-20 -8 -4 -15 -12 -15 -19 0 -8 -9 -17 -20 -20 -11 -3 -20 -13 -20 -21 0 -8
-7 -14 -15 -14 -9 0 -18 -6 -21 -14 -3 -8 -19 -18 -36 -21 -16 -4 -32 -13 -35
-21 -3 -8 -13 -14 -23 -14 -10 0 -23 -7 -30 -15 -7 -8 -19 -15 -27 -15 -7 0
-30 -8 -51 -19 -20 -10 -59 -22 -87 -26 -27 -4 -55 -11 -62 -17 -24 -20 -322
8 -388 37 -82 35 -139 69 -166 96 -15 16 -31 29 -35 29 -10 0 -128 125 -142
151 -28 52 -41 72 -52 79 -6 4 -16 27 -21 51 -6 24 -15 46 -21 50 -5 4 -13 37
-16 75 -3 38 -12 80 -20 93 l-16 23 -360 -7 c-287 -6 -364 -10 -377 -21 -8 -8
-25 -14 -36 -14 -28 0 -42 64 -19 89 9 10 16 22 16 27 0 12 28 49 53 72 9 9
17 20 17 24 0 19 92 92 150 119 81 38 89 39 377 45 287 6 288 6 326 32 20 14
40 36 43 48 4 13 12 24 19 24 8 0 16 8 20 18 3 9 26 33 51 51 26 19 53 45 61
58 9 13 20 23 27 23 6 0 28 9 49 20 20 11 42 20 48 20 6 0 26 7 45 16 71 34
127 42 259 39 113 -2 139 -6 196 -29z m-1707 -762 c9 -24 7 -64 -3 -64 -11 0
-21 25 -21 56 0 27 15 32 24 8z m36 -90 c0 -8 -4 -14 -10 -14 -5 0 -10 9 -10
21 0 11 5 17 10 14 6 -3 10 -13 10 -21z m-4740 -38 c0 -17 -27 -29 -35 -16 -4
6 -3 15 0 20 9 15 35 12 35 -4z m4780 -7 c0 -5 -7 -9 -15 -9 -15 0 -20 12 -9
23 8 8 24 -1 24 -14z m-4830 -29 c0 -12 -27 -20 -66 -20 -23 0 -34 5 -34 14 0
8 5 16 11 18 18 6 89 -4 89 -12z m-401 -11 c90 -15 208 -11 236 7 19 12 25 13
25 3 0 -7 7 -20 16 -30 14 -16 9 -17 -93 -24 -98 -7 -381 0 -391 9 -13 14 -6
42 12 47 24 7 115 2 195 -12z m3384 15 c20 -4 37 -11 37 -15 0 -11 -64 -12
-151 -2 -54 6 -59 8 -34 14 40 9 102 10 148 3z m-945 -11 c-10 -2 -28 -2 -40
0 -13 2 -5 4 17 4 22 1 32 -1 23 -4z m2979 -39 c-3 -3 -12 -4 -19 -1 -8 3 -5
6 6 6 11 1 17 -2 13 -5z m-831 -781 c-11 -11 -17 4 -9 23 7 18 8 18 11 1 2
-10 1 -21 -2 -24z m-4322 -72 c3 -4 28 -11 55 -15 37 -5 51 -11 56 -26 4 -11
15 -20 25 -20 29 0 80 -69 80 -107 0 -23 -5 -33 -15 -33 -8 0 -15 6 -15 13 0
7 -15 17 -32 22 -19 6 -38 21 -45 35 -11 23 -19 25 -90 28 -335 12 -381 12
-423 2 -25 -7 -103 -20 -173 -31 -103 -15 -139 -16 -179 -8 -52 11 -138 4
-138 -11 0 -5 -22 -6 -49 -3 l-48 5 -7 -43 c-4 -24 -12 -46 -18 -50 -5 -4 -13
-27 -15 -53 -4 -36 -2 -47 11 -52 13 -5 16 -21 16 -74 0 -74 -14 -101 -24 -47
-3 18 -15 40 -26 50 -13 11 -20 29 -20 51 0 19 -7 41 -15 49 -8 8 -18 34 -21
58 -4 24 -13 54 -21 68 -7 14 -13 49 -13 77 l0 51 118 7 c64 3 158 11 207 16
50 5 205 14 345 20 140 6 280 14 310 19 75 12 158 13 164 2z m5344 -3 c7 -7
73 -13 182 -17 151 -5 173 -8 182 -24 7 -14 17 -17 39 -12 42 9 109 -4 109
-21 0 -11 -29 -14 -164 -14 -91 0 -167 4 -171 9 -7 13 -99 20 -315 25 -179 4
-257 15 -217 31 9 4 17 13 17 21 0 11 30 14 163 14 111 0 167 -4 175 -12z
m819 -84 c13 -13 14 -20 5 -35 -7 -10 -12 -28 -12 -40 0 -25 -18 -61 -36 -72
-9 -5 -14 -26 -14 -52 0 -25 -4 -45 -10 -45 -9 0 -13 36 -14 130 -1 33 -2 35
-34 32 -23 -1 -41 4 -55 18 -12 11 -31 26 -42 34 -19 13 -18 15 18 21 21 4 60
5 88 3 34 -4 52 -1 60 8 15 18 27 18 46 -2z m-1304 -86 c-3 -16 -12 -28 -19
-28 -17 0 -17 10 -4 46 13 34 31 20 23 -18z m-5675 2 c29 0 32 -3 32 -29 0
-24 -5 -31 -28 -36 -16 -3 -41 -1 -55 4 -21 8 -27 17 -27 42 0 28 3 31 23 25
12 -3 37 -6 55 -6z m5033 -43 c-1 -4 -1 -16 -1 -27 0 -11 -6 -20 -13 -20 -9 0
-12 10 -9 30 2 17 9 29 14 28 5 -2 9 -7 9 -11z m-4001 -103 c0 -47 -4 -73 -10
-69 -16 10 -10 145 6 145 2 0 4 -34 4 -76z m-920 56 c0 -5 -7 -10 -15 -10 -8
0 -15 5 -15 10 0 6 7 10 15 10 8 0 15 -4 15 -10z m4887 -40 c-4 -17 -27 -50
-55 -78 -27 -26 -51 -56 -55 -65 -3 -9 -13 -17 -21 -17 -7 0 -16 -7 -20 -15
-3 -8 -12 -15 -21 -15 -8 0 -15 -6 -15 -14 0 -8 -16 -20 -35 -26 -19 -6 -35
-16 -35 -21 0 -5 -13 -9 -30 -9 l-29 0 35 33 c20 17 51 46 70 64 18 17 42 34
54 38 11 3 20 13 20 21 0 8 7 14 15 14 8 0 15 5 15 10 0 16 42 70 54 70 6 0
17 9 24 20 19 31 35 25 29 -10z m-5119 -10 c1 -35 -15 -40 -27 -7 -6 16 -4 24
8 29 9 4 16 7 17 7 1 1 1 -12 2 -29z m6610 13 c2 -8 -5 -13 -17 -13 -12 0 -21
6 -21 16 0 18 31 15 38 -3z m-237 -34 c19 -6 41 -19 49 -28 8 -9 23 -20 33
-24 9 -3 17 -13 17 -22 0 -8 5 -15 10 -15 6 0 13 -8 17 -17 3 -10 12 -25 20
-34 8 -10 14 -41 15 -77 1 -51 -3 -65 -28 -96 -16 -20 -39 -39 -51 -42 -12 -3
-24 -12 -27 -19 -2 -7 -20 -16 -38 -20 -18 -4 -37 -11 -43 -15 -20 -16 -51
-14 -97 5 -27 11 -48 26 -48 33 0 6 -6 12 -12 12 -7 0 -25 16 -40 34 -25 31
-28 43 -28 110 0 41 4 78 10 81 5 3 17 21 26 40 9 19 20 35 25 35 4 0 19 11
33 25 14 14 35 25 48 25 13 0 30 5 38 10 19 13 30 12 71 -1z m-5698 -54 c25
-22 46 -47 46 -56 1 -8 6 -20 12 -26 17 -17 -12 -183 -32 -183 -5 0 -22 -14
-39 -31 -34 -36 -100 -53 -167 -43 -45 7 -123 64 -123 90 0 8 -7 17 -15 20
-11 5 -15 23 -15 75 0 53 4 71 15 75 8 4 15 11 15 16 0 17 88 96 112 101 13 3
51 4 85 3 56 -2 65 -5 106 -41z m6327 -55 c0 -11 -4 -20 -10 -20 -5 0 -10 9
-10 20 0 11 5 20 10 20 6 0 10 -9 10 -20z m-6185 0 c3 -5 -1 -10 -10 -10 -9 0
-13 5 -10 10 3 6 8 10 10 10 2 0 7 -4 10 -10z m899 -52 c3 -13 6 -35 6 -49 0
-15 7 -29 15 -33 8 -3 15 -10 15 -16 0 -6 7 -18 15 -27 18 -17 11 -33 -15 -33
-18 0 -50 37 -64 74 -8 23 3 106 14 106 4 0 10 -10 14 -22z m3069 -93 c1 -6
-11 -11 -26 -13 -16 -2 -31 -10 -33 -17 -3 -7 -23 -16 -44 -20 -21 -4 -41 -13
-44 -21 -4 -10 -23 -14 -68 -13 l-63 0 59 19 c32 10 63 23 69 29 6 6 28 11 49
11 20 0 41 6 45 14 14 23 53 31 56 11z m-4826 -17 c-3 -8 -6 -5 -6 6 -1 11 2
17 5 13 3 -3 4 -12 1 -19z m5946 -15 c4 -2 7 -11 7 -19 0 -8 7 -14 15 -14 8 0
15 -7 15 -15 0 -8 9 -15 20 -15 11 0 20 -4 20 -9 0 -16 49 -61 67 -61 29 0 39
-12 57 -65 9 -27 28 -60 42 -72 25 -21 25 -22 6 -32 -11 -6 -22 -21 -26 -34
-5 -23 -9 -23 -123 -25 l-118 -2 -42 55 c-24 30 -43 61 -43 68 0 6 -9 27 -21
46 -18 30 -19 35 -5 50 9 10 16 30 16 44 0 17 5 27 15 27 8 0 17 14 21 38 4
20 9 40 11 45 4 6 48 0 66 -10z m-236 -25 c-3 -7 -5 -2 -5 12 0 14 2 19 5 13
2 -7 2 -19 0 -25z m-3322 2 c3 -6 22 -10 41 -10 19 0 34 -4 34 -10 0 -14 -447
-14 -455 0 -4 6 17 10 57 9 35 0 97 4 138 8 112 13 178 14 185 3z m-2340 -23
c0 -26 -20 -25 -23 2 -3 16 1 22 10 19 7 -3 13 -12 13 -21z m2555 8 c0 -16
-55 -22 -64 -6 -8 13 5 21 36 21 18 0 28 -5 28 -15z m-615 -6 c3 -3 -27 -7
-66 -8 -48 -1 -69 1 -64 8 7 12 124 11 130 0z m1733 -21 c2 -20 -2 -28 -18
-33 -12 -4 -146 -5 -297 -3 -217 2 -277 0 -281 -10 -2 -7 -10 -18 -17 -26 -11
-10 -14 -79 -17 -314 l-3 -301 -25 -23 c-49 -46 -85 -58 -175 -58 -67 0 -87 3
-91 15 -4 8 -11 15 -18 15 -15 0 -46 36 -46 54 0 16 34 31 50 21 5 -3 10 -12
10 -20 0 -19 55 -28 139 -23 59 3 73 8 97 31 l27 27 -7 148 c-3 81 -11 192
-17 247 -15 133 -14 167 5 177 11 6 16 23 16 52 0 23 3 46 6 49 4 4 154 6 333
4 l326 -2 3 -27z m632 13 c0 -5 9 -11 21 -14 12 -3 18 -10 14 -16 -8 -14 -215
-15 -215 -1 0 6 14 13 30 17 17 3 33 10 36 14 7 12 114 12 114 0z m-1560 -50
c0 -17 -5 -33 -11 -36 -13 -9 -15 -6 -24 33 -6 28 -4 32 14 32 17 0 21 -6 21
-29z m1365 -53 c-3 -29 -10 -174 -13 -323 -7 -275 -12 -305 -49 -319 -7 -3
-65 -6 -129 -7 -106 -1 -117 1 -135 20 -11 12 -24 21 -29 21 -6 0 -10 5 -10
11 0 7 -7 17 -17 24 -9 7 -13 17 -9 23 11 19 26 14 26 -8 0 -11 6 -20 14 -20
8 0 22 -8 32 -17 13 -14 38 -19 101 -22 99 -4 129 2 143 29 9 17 14 386 8 557
-1 22 6 40 23 57 41 41 53 34 44 -26z m-3965 -153 c0 -8 -4 -15 -10 -15 -5 0
-10 7 -10 15 0 8 5 15 10 15 6 0 10 -7 10 -15z m2595 -178 l0 -172 -27 -3 -28
-3 0 150 c0 123 3 156 18 185 29 59 37 27 37 -157z m999 -12 c3 -73 2 -136 -3
-144 -15 -24 -23 25 -17 105 3 38 5 93 5 123 1 95 9 50 15 -84z m-2554 -405
c0 -5 -4 -10 -10 -10 -5 0 -10 5 -10 10 0 6 5 10 10 10 6 0 10 -4 10 -10z
m4126 -266 c20 -21 24 -35 24 -93 0 -55 -4 -71 -20 -87 -12 -10 -28 -27 -38
-36 -9 -10 -22 -18 -28 -18 -6 0 -23 -9 -37 -20 -14 -11 -32 -20 -41 -20 -9 0
-16 -4 -16 -10 0 -5 -15 -16 -34 -24 -18 -8 -36 -19 -40 -24 -3 -6 -20 -13
-36 -17 -17 -4 -30 -11 -30 -16 0 -5 -10 -14 -22 -19 -13 -6 -30 -14 -38 -18
-8 -5 -31 -17 -50 -27 -19 -9 -50 -26 -68 -36 -18 -11 -39 -19 -47 -19 -22 0
-84 34 -85 46 0 6 -7 17 -15 24 -43 35 1 97 103 145 17 8 32 20 32 25 0 5 16
12 35 16 20 3 35 12 35 20 0 8 7 14 15 14 14 0 112 48 125 60 3 3 31 18 63 34
31 16 57 33 57 38 0 5 13 13 28 19 15 5 36 23 46 39 21 37 51 39 82 4z m-4376
-23 c0 -17 -12 -41 -21 -41 -5 0 -9 11 -9 25 0 16 6 25 15 25 8 0 15 -4 15 -9z
m658 -50 c9 -5 44 -20 77 -33 33 -13 61 -26 63 -30 2 -4 22 -13 44 -19 23 -6
47 -17 55 -25 8 -8 21 -14 28 -14 8 0 18 -6 22 -13 4 -7 33 -26 63 -41 30 -16
58 -34 63 -41 4 -8 21 -16 37 -20 17 -4 30 -10 30 -15 0 -5 9 -12 20 -15 34
-11 24 -50 -25 -100 -25 -25 -50 -45 -56 -45 -15 0 -71 32 -84 47 -5 7 -21 17
-35 23 -14 6 -38 19 -55 30 -16 11 -44 27 -62 35 -17 8 -34 19 -37 24 -4 5
-19 12 -35 16 -16 3 -32 13 -35 21 -3 8 -14 14 -23 14 -10 0 -27 6 -38 14 -11
7 -37 19 -57 25 -21 7 -38 16 -38 21 0 4 -9 10 -20 13 -16 4 -20 14 -20 45 0
49 21 68 98 91 1 1 10 -3 20 -8z m3179 -697 c-3 -3 -12 -4 -19 -1 -8 3 -5 6 6
6 11 1 17 -2 13 -5z"/>
<path d="M3508 6643 c-21 -5 -21 -8 -8 -34 12 -22 55 -26 67 -5 4 7 22 18 38
24 30 10 30 10 4 11 -15 1 -39 3 -55 5 -16 2 -37 2 -46 -1z"/>
<path d="M4460 6644 c0 -4 7 -15 16 -25 16 -18 18 -112 10 -549 0 -19 1 -151
2 -293 l2 -257 38 -1 c20 -1 261 -3 534 -5 484 -4 499 -4 542 16 25 11 52 20
60 20 9 0 16 7 16 15 0 8 9 15 19 15 10 0 29 11 42 25 13 13 27 25 32 25 4 0
25 18 47 40 22 22 40 43 40 48 0 4 12 18 25 31 14 13 25 29 25 36 0 7 7 18 15
25 8 7 15 22 15 33 0 11 8 29 18 40 14 16 17 38 17 135 -1 82 -4 117 -13 120
-7 2 -15 21 -18 43 -4 21 -10 39 -14 39 -4 0 -13 14 -21 31 -7 18 -28 48 -46
68 -18 20 -33 39 -33 44 0 4 -7 7 -15 7 -8 0 -15 4 -15 9 0 5 -12 16 -27 23
-16 8 -38 20 -50 26 -13 7 -33 17 -45 24 -25 12 -148 35 -268 48 -41 5 -238 9
-438 9 l-362 1 -11 -27 c-6 -16 -12 -122 -13 -238 -2 -115 -8 -241 -14 -280
-6 -38 -11 -133 -12 -210 -1 -143 -12 -165 -24 -45 -6 67 -10 894 -4 920 2 11
-8 16 -34 18 -21 2 -38 0 -38 -4z"/>
<path d="M6764 6155 c-3 -8 -14 -17 -25 -20 -10 -4 -19 -13 -19 -21 0 -9 -11
-14 -32 -14 -17 0 -39 -7 -48 -15 -10 -9 -35 -19 -56 -22 -22 -3 -46 -11 -54
-18 -8 -7 -35 -15 -59 -18 -24 -3 -47 -10 -50 -15 -3 -6 -20 -14 -36 -18 -49
-12 -74 -36 -75 -69 0 -55 10 -73 51 -89 48 -19 59 -20 59 -3 0 7 9 23 20 35
11 12 20 26 20 32 0 5 14 10 30 10 17 0 39 9 50 20 11 11 29 20 40 20 11 0 23
7 26 15 4 8 12 15 19 15 7 0 23 11 36 25 13 13 32 25 41 25 9 0 20 5 23 10 11
18 35 -10 35 -41 0 -16 5 -29 10 -29 6 0 10 12 10 28 0 15 6 39 14 53 7 14 16
47 20 73 7 45 6 46 -19 46 -14 0 -28 -7 -31 -15z"/>
<path d="M6758 5908 c-5 -57 -2 -72 13 -63 12 8 12 115 0 115 -5 0 -11 -24
-13 -52z"/>
<path d="M6720 5819 c0 -20 4 -29 13 -27 18 7 20 45 3 51 -12 5 -16 -1 -16
-24z"/>
<path d="M6349 5783 c-5 -13 -9 -28 -9 -33 0 -5 -5 -10 -12 -12 -7 -3 -13 -38
-16 -93 -3 -62 -9 -93 -19 -100 -8 -6 -17 -31 -20 -55 -3 -25 -10 -50 -15 -57
-26 -33 30 -45 62 -13 12 12 33 20 54 20 37 0 135 46 143 67 3 7 18 13 35 13
34 0 77 43 78 78 0 21 -23 31 -33 15 -2 -5 -2 -2 -1 5 2 6 -3 12 -11 12 -8 0
-15 -7 -15 -16 0 -11 -5 -14 -16 -10 -9 3 -18 6 -20 6 -2 0 -4 11 -4 25 0 18
-5 25 -20 25 -11 0 -20 -7 -20 -15 0 -9 -6 -12 -15 -9 -10 4 -15 20 -15 50 0
44 0 44 35 44 30 0 35 3 35 23 0 43 -14 51 -95 52 -72 2 -77 0 -86 -22z"/>
<path d="M2110 7004 c-25 -14 -52 -32 -61 -40 -8 -8 -21 -14 -27 -14 -7 0 -12
-5 -12 -10 0 -6 -8 -23 -17 -37 -22 -33 -53 -120 -46 -127 9 -9 53 37 53 55 0
9 23 40 51 69 37 38 62 55 92 62 23 5 44 12 47 16 3 4 13 12 23 17 31 17 24
30 -18 32 -28 2 -54 -5 -85 -23z"/>
<path d="M1968 6738 c-10 -24 4 -78 19 -78 10 0 13 11 11 42 -3 41 -21 62 -30
36z"/>
<path d="M1776 6669 c-30 -68 -28 -111 4 -72 10 12 35 26 57 31 68 15 113 72
58 72 -14 0 -28 7 -31 15 -4 8 -18 15 -33 15 -24 0 -31 -8 -55 -61z"/>
<path d="M1726 6572 c-3 -5 -2 -19 1 -32 6 -22 7 -23 14 -4 4 10 8 25 8 32 1
14 -15 16 -23 4z"/>
<path d="M2172 6573 c-71 -7 -36 -23 49 -23 64 0 79 3 79 15 0 15 -25 17 -128
8z"/>
<path d="M1202 5756 c-4 -6 -16 -36 -26 -66 -22 -64 -47 -96 -84 -105 -70 -17
-80 -84 -17 -111 36 -15 47 -34 20 -34 -8 0 -15 -8 -15 -17 0 -9 -8 -25 -17
-36 -14 -14 -19 -41 -22 -109 -3 -82 -1 -92 20 -114 12 -13 28 -24 35 -24 17
0 20 -14 16 -61 -4 -33 -8 -39 -27 -39 -12 0 -28 7 -35 16 -21 25 -78 14 -98
-18 -15 -26 -15 -30 3 -60 22 -37 54 -67 73 -68 7 0 15 -7 18 -15 4 -9 19 -15
38 -16 17 0 56 -8 86 -17 l55 -18 3 -69 c2 -40 8 -73 15 -77 7 -4 30 -8 52 -7
32 0 45 6 64 30 20 26 23 38 19 82 -6 58 -2 77 16 77 25 0 122 58 133 80 6 12
17 26 25 31 19 12 25 161 6 180 -38 40 -50 70 -39 101 6 17 11 60 11 95 0 63
-1 65 -45 109 -25 24 -50 44 -55 44 -25 0 -49 41 -52 87 l-3 48 -50 -1 c-53
-1 -68 9 -59 39 10 32 -4 64 -31 69 -14 3 -28 0 -33 -6z m145 -352 c17 -19 23
-35 21 -58 -3 -29 -6 -32 -55 -40 -73 -12 -87 -5 -80 43 10 77 68 105 114 55z
m34 -274 c31 -17 24 -53 -15 -74 -47 -25 -66 -16 -66 32 0 21 3 42 7 45 10 10
52 8 74 -3z"/>
<path d="M8821 5684 c-25 -36 -31 -56 -31 -96 0 -47 -3 -54 -40 -85 -22 -19
-40 -41 -40 -49 0 -8 -4 -14 -10 -14 -24 0 -9 -56 24 -90 l34 -35 -5 -122 -6
-123 -49 0 c-42 0 -50 -3 -58 -24 -5 -13 -14 -27 -19 -31 -19 -11 -12 -51 12
-72 12 -12 36 -24 54 -28 17 -3 34 -12 36 -19 5 -12 82 -28 142 -31 11 0 32
-7 47 -14 25 -13 27 -20 30 -79 3 -61 5 -66 29 -73 19 -5 36 -1 59 14 l32 20
-7 69 c-7 79 -1 88 91 133 29 13 54 31 58 40 3 8 12 15 20 15 8 0 16 14 20 34
4 19 12 36 18 38 6 2 11 27 11 58 0 64 -27 122 -72 159 l-30 25 28 35 c36 46
45 75 29 92 -7 8 -19 26 -27 41 -18 34 -83 78 -116 78 -28 0 -33 21 -10 40 8
7 15 29 15 50 0 32 -5 41 -38 64 -21 14 -46 26 -55 26 -25 0 -42 -42 -28 -68
23 -42 11 -112 -19 -112 -29 0 -41 25 -39 82 4 71 -6 98 -36 98 -17 0 -32 -13
-54 -46z m264 -294 c8 -13 -3 -50 -15 -50 -12 0 -23 37 -15 50 3 5 10 10 15
10 5 0 12 -5 15 -10z m-140 -50 c3 -11 11 -20 16 -20 5 0 9 -23 9 -52 0 -55
19 -88 51 -88 33 0 49 -12 49 -36 0 -31 -37 -74 -64 -74 -12 -1 -32 -7 -46
-15 -34 -19 -42 -18 -62 9 -14 19 -15 30 -7 61 7 26 7 63 -1 126 -6 48 -9 93
-5 99 11 18 53 11 60 -10z"/>
</g>
</svg>
